<?xml version="1.0" encoding="UTF-8" ?>
<svg xmlns="http://www.w3.org/2000/svg" xmlns:xlink="http://www.w3.org/1999/xlink" shape-rendering="crispEdges" stroke="none" preserveAspectRatio="xMidYMid slice" width="5" height="5" viewBox="0 0 5 5">
<path id="00ff232322" fill="#222323" d="M 0 0 L 1 0 L 1 1 L 0 1 Z M 4 0 L 5 0 L 5 1 L 4 1 Z M 1 1 L 2 1 L 2 2 L 1 2 Z M 3 1 L 4 1 L 4 2 L 3 2 Z M 2 2 L 3 2 L 3 3 L 2 3 Z M 1 3 L 2 3 L 2 4 L 1 4 Z M 3 3 L 4 3 L 4 4 L 3 4 Z M 0 4 L 1 4 L 1 5 L 0 5 Z M 4 4 L 5 4 L 5 5 L 4 5 Z" />
</svg>