<?xml version="1.0" encoding="UTF-8" ?>
<svg xmlns="http://www.w3.org/2000/svg" xmlns:xlink="http://www.w3.org/1999/xlink" shape-rendering="crispEdges" stroke="none" preserveAspectRatio="xMidYMid slice" width="4" height="4" viewBox="0 0 4 4">
<path id="00ff988b82" fill="#828B98" d="M 1 0 L 2 0 L 2 1 L 1 1 Z M 2 0 L 3 0 L 3 1 L 2 1 Z M 0 1 L 1 1 L 1 2 L 0 2 Z M 0 2 L 1 2 L 1 3 L 0 3 Z" />
<path id="00fffaf7f5" fill="#F5F7FA" d="M 3 1 L 4 1 L 4 2 L 3 2 Z M 3 2 L 4 2 L 4 3 L 3 3 Z M 1 3 L 2 3 L 2 4 L 1 4 Z M 2 3 L 3 3 L 3 4 L 2 4 Z" />
</svg>